<?xml version="1.0" encoding="UTF-8" standalone="no"?>
<svg
   width="192"
   height="64"
   version="1.1"
   id="svg3"
   sodipodi:docname="button_rectangle.svg"
   inkscape:version="1.3.2 (091e20e, 2023-11-25, custom)"
   xmlns:inkscape="http://www.inkscape.org/namespaces/inkscape"
   xmlns:sodipodi="http://sodipodi.sourceforge.net/DTD/sodipodi-0.dtd"
   xmlns="http://www.w3.org/2000/svg"
   xmlns:svg="http://www.w3.org/2000/svg">
  <sodipodi:namedview
     id="namedview3"
     pagecolor="#505050"
     bordercolor="#ffffff"
     borderopacity="1"
     inkscape:showpageshadow="0"
     inkscape:pageopacity="0"
     inkscape:pagecheckerboard="1"
     inkscape:deskcolor="#505050"
     showgrid="false"
     inkscape:zoom="4.5851455"
     inkscape:cx="73.171069"
     inkscape:cy="45.909121"
     inkscape:window-width="1920"
     inkscape:window-height="1009"
     inkscape:window-x="1912"
     inkscape:window-y="-8"
     inkscape:window-maximized="1"
     inkscape:current-layer="svg3" />
  <defs
     id="defs1" />
  <g
     id="g3">
    <path
       stroke="none"
       fill="#ffffff"
       d="M 6,8 C 4.9,8 4.2666667,8.4333333 4.1,9.3 L 4.05,9.5 4,10 v 48 c 0,1.333333 0.6666667,2 2,2 H 27.45 28 155.45 156 186 c 1.33333,0 2,-0.666667 2,-2 V 10 L 187.95,9.3 188,9.35 C 187.76667,8.45 187.1,8 186,8 H 6 M 6,62 C 3.3333333,62 2,60.666667 2,58 V 10 L 2.1,9.05 C 2.3666667,7.0166667 3.6666667,6 6,6 h 180 c 2.33333,0 3.65,1.0166667 3.95,3.05 L 190,10 v 48 c 0,2.666667 -1.33333,4 -4,4 H 6"
       id="path1"
       sodipodi:nodetypes="ccccssccccsscccsccsccssccssc" />
    <path
       stroke="none"
       fill="#dadce7"
       d="m 6,8 h 180 c 1.1,0 1.76667,0.45 2,1.35 L 187.95,9.3 188,10 v 48 c 0,1.333333 -0.66667,2 -2,2 H 156 155.45 28 27.45 6 C 4.6666667,60 4,59.333333 4,58 V 10 L 4.05,9.5 4.1,9.3 C 4.2666667,8.4333333 4.9,8 6,8 m 178,6 c 0,-0.566667 -0.2,-1.05 -0.6,-1.45 C 183.03333,12.183333 182.56667,12 182,12 c -0.56667,0 -1.03333,0.183333 -1.4,0.55 -0.4,0.4 -0.6,0.883333 -0.6,1.45 0,0.566667 0.2,1.033333 0.6,1.4 0.36667,0.4 0.83333,0.6 1.4,0.6 0.56667,0 1.03333,-0.2 1.4,-0.6 0.4,-0.366667 0.6,-0.833333 0.6,-1.4 M 12,54 C 12,53.433333 11.8,52.95 11.4,52.55 11.033333,52.183333 10.566667,52 10,52 9.4333333,52 8.9666667,52.183333 8.6,52.55 8.2,52.95 8,53.433333 8,54 c 0,0.566667 0.2,1.033333 0.6,1.4 0.3666667,0.4 0.8333333,0.6 1.4,0.6 0.566667,0 1.033333,-0.2 1.4,-0.6 C 11.8,55.033333 12,54.566667 12,54 M 12,14 C 12,13.433333 11.8,12.95 11.4,12.55 11.033333,12.183333 10.566667,12 10,12 9.4333333,12 8.9666667,12.183333 8.6,12.55 8.2,12.95 8,13.433333 8,14 c 0,0.566667 0.2,1.033333 0.6,1.4 0.3666667,0.4 0.8333333,0.6 1.4,0.6 0.566667,0 1.033333,-0.2 1.4,-0.6 C 11.8,15.033333 12,14.566667 12,14 m 172,40 c 0,-0.566667 -0.2,-1.05 -0.6,-1.45 C 183.03333,52.183333 182.56667,52 182,52 c -0.56667,0 -1.03333,0.183333 -1.4,0.55 -0.4,0.4 -0.6,0.883333 -0.6,1.45 0,0.566667 0.2,1.033333 0.6,1.4 0.36667,0.4 0.83333,0.6 1.4,0.6 0.56667,0 1.03333,-0.2 1.4,-0.6 0.4,-0.366667 0.6,-0.833333 0.6,-1.4"
       id="path2"
       sodipodi:nodetypes="cscccssccccsscccccsssscscccsssscscccsssscscccsssscscc" />
    <path
       stroke="none"
       fill="#9696a3"
       d="m 184,54 c 0,0.566667 -0.2,1.033333 -0.6,1.4 -0.36667,0.4 -0.83333,0.6 -1.4,0.6 -0.56667,0 -1.03333,-0.2 -1.4,-0.6 -0.4,-0.366667 -0.6,-0.833333 -0.6,-1.4 0,-0.566667 0.2,-1.05 0.6,-1.45 0.36667,-0.366667 0.83333,-0.55 1.4,-0.55 0.56667,0 1.03333,0.183333 1.4,0.55 0.4,0.4 0.6,0.883333 0.6,1.45 M 6,62 h 180 c 2.66667,0 4,-1.333333 4,-4 V 10 L 189.95,9.05 C 189.65,7.0166667 188.33333,6 186,6 H 6 C 3.6666667,6 2.3666667,7.0166667 2.1,9.05 L 2,10 v 48 c 0,2.666667 1.3333333,4 4,4 M 184,14 c 0,0.566667 -0.2,1.033333 -0.6,1.4 -0.36667,0.4 -0.83333,0.6 -1.4,0.6 -0.56667,0 -1.03333,-0.2 -1.4,-0.6 -0.4,-0.366667 -0.6,-0.833333 -0.6,-1.4 0,-0.566667 0.2,-1.05 0.6,-1.45 0.36667,-0.366667 0.83333,-0.55 1.4,-0.55 0.56667,0 1.03333,0.183333 1.4,0.55 0.4,0.4 0.6,0.883333 0.6,1.45 M 0,58.25 V 10 C 0,6 2,4 6,4 h 180 c 4,0 6,2 6,6 V 58.25 C 191.9,62.083333 189.9,64 186,64 H 6 C 2.1,64 0.1,62.083333 0,58.25 M 12,14 c 0,0.566667 -0.2,1.033333 -0.6,1.4 C 11.033333,15.8 10.566667,16 10,16 9.4333333,16 8.9666667,15.8 8.6,15.4 8.2,15.033333 8,14.566667 8,14 8,13.433333 8.2,12.95 8.6,12.55 8.9666667,12.183333 9.4333333,12 10,12 c 0.566667,0 1.033333,0.183333 1.4,0.55 0.4,0.4 0.6,0.883333 0.6,1.45 m 0,40 c 0,0.566667 -0.2,1.033333 -0.6,1.4 C 11.033333,55.8 10.566667,56 10,56 9.4333333,56 8.9666667,55.8 8.6,55.4 8.2,55.033333 8,54.566667 8,54 8,53.433333 8.2,52.95 8.6,52.55 8.9666667,52.183333 9.4333333,52 10,52 c 0.566667,0 1.033333,0.183333 1.4,0.55 0.4,0.4 0.6,0.883333 0.6,1.45"
       id="path3"
       sodipodi:nodetypes="ccscssssccssccssccscccscssssccsssscsscccscsssscccscssssc" />
  </g>
</svg>
